<!--?xml version="1.0" encoding="utf-8"?-->
<!-- Generator: Adobe Illustrator 20.1.0, SVG Export Plug-In . SVG Version: 6.00 Build 0)  -->
<svg version="1.1" id="_x31_0" xmlns="http://www.w3.org/2000/svg" xmlns:xlink="http://www.w3.org/1999/xlink" x="0px" y="0px" viewBox="0 0 512 512" style="width: 32px; height: 32px; opacity: 1;" xml:space="preserve">
<style type="text/css">
	.st0{fill:#374149;}
</style>
<g>
	<path class="st0" d="M256.035,0C114.84,0,0,114.836,0,255.965C0,397.16,114.84,512,256.035,512C397.164,512,512,397.16,512,255.965
		C512,114.836,397.164,0,256.035,0z M256.035,484.754c-126.348,0-228.789-102.441-228.789-228.789S129.687,27.246,256.035,27.246
		s228.718,102.37,228.718,228.718S382.383,484.754,256.035,484.754z" style="fill: rgb(255, 255, 255);"></path>
	<polygon class="st0" points="215.984,74.848 215.984,75.058 223.305,68.726 228.039,64.77 228.039,112.18 238.871,112.18 
		238.871,52.988 228.039,52.988 215.984,63.41 215.984,70.386 215.879,74.938 	" style="fill: rgb(255, 255, 255);"></polygon>
	<path class="st0" d="M296.082,102.508h-13.966l-8.832-0.102l16.466-19.106c0.953-1.16,1.906-2.246,2.656-3.27
		c0.816-1.023,1.5-2.11,2.043-3.133c0.546-1.09,0.886-2.18,1.226-3.274c0.274-1.156,0.406-2.449,0.406-3.878
		c0-2.661-0.473-5.039-1.36-7.223c-0.886-2.109-2.113-3.949-3.679-5.378c-1.566-1.496-3.473-2.59-5.723-3.406
		c-2.175-0.817-4.629-1.222-7.218-1.222c-2.586,0-4.902,0.406-7.152,1.156c-2.18,0.816-4.086,1.906-5.719,3.406
		c-1.637,1.496-2.93,3.336-3.813,5.445c-0.898,2.047-1.281,4.297-1.328,6.817c-0.007,0.11-0.031,0.207-0.039,0.316h0.012
		c0,0.055-0.012,0.102-0.012,0.161h10.637h0.035l0,0h0.161c0-1.434,0.202-2.661,0.613-3.614c0.41-0.953,0.954-1.77,1.637-2.317
		c0.68-0.609,1.496-1.019,2.313-1.293c0.886-0.207,1.77-0.343,2.656-0.343c2.316,0,4.086,0.683,5.316,2.046
		c1.223,1.359,1.836,3.133,1.836,5.383c0,1.359-0.273,2.586-0.75,3.609c-0.406,1.09-1.222,2.246-2.317,3.539l-22.137,25.68v9.742
		h36.032V102.508z" style="fill: rgb(255, 255, 255);"></path>
	<path class="st0" d="M455.809,259.848c-1.258-1.77-2.797-3.118-4.492-4.176c-0.309-0.226-0.586-0.489-0.906-0.699
		c1.949-1.086,3.57-2.5,4.851-4.457c1.297-1.906,1.977-4.426,1.977-7.696c0-2.453-0.477-4.77-1.363-6.812
		c-0.887-2.114-2.114-3.883-3.746-5.383c-1.637-1.5-3.539-2.656-5.718-3.473c-2.25-0.886-4.633-1.293-7.29-1.293
		c-2.453,0-4.836,0.406-7.015,1.16c-2.18,0.813-4.086,1.902-5.653,3.336c-1.636,1.43-2.934,3.199-3.882,5.309
		c-0.879,1.883-1.363,4.078-1.496,6.481c-0.016,0.152-0.058,0.293-0.07,0.445h0.019c-0.004,0.055-0.019,0.102-0.019,0.161h10.828
		c0.137-2.25,0.817-4.02,2.18-5.242c1.363-1.297,3.066-1.91,5.109-1.91c1.973,0,3.676,0.684,5.106,1.91
		c1.434,1.289,2.184,3.199,2.184,5.648c0,2.114-0.618,3.887-1.774,5.317c-1.156,1.43-3.062,2.113-5.722,2.113h-1.566v9.398h1.566
		c2.66,0,4.702,0.746,6.133,2.176c1.43,1.5,2.175,3.477,2.175,5.996c0,2.657-0.746,4.699-2.246,6.133
		c-1.496,1.36-3.402,2.11-5.723,2.11c-1.086,0-2.109-0.203-3.062-0.477c-0.953-0.273-1.84-0.75-2.519-1.43
		c-0.75-0.613-1.297-1.43-1.774-2.386c-0.406-0.954-0.68-2.114-0.746-3.473h-10.511l-0.16-0.004v0.004h-0.161
		c0.066,3.133,0.614,5.789,1.703,7.969c1.024,2.18,2.454,3.953,4.223,5.382c1.703,1.43,3.746,2.45,5.926,3.133
		c2.25,0.68,4.633,1.02,7.082,1.02c2.524,0,4.973-0.41,7.223-1.09c2.246-0.75,4.289-1.836,5.992-3.336
		c1.703-1.43,3.066-3.27,4.09-5.516c0.954-2.179,1.496-4.774,1.496-7.699C458.054,264.886,457.305,262.023,455.809,259.848z" style="fill: rgb(255, 255, 255);"></path>
	<path class="st0" d="M269.726,428.832c-1.5-1.5-3.137-2.656-5.043-3.473c-1.835-0.816-3.746-1.226-5.718-1.226
		c-0.75,0-1.5,0.066-2.25,0.203c-0.481,0.086-0.934,0.226-1.395,0.347c-0.25,0.035-0.472,0.082-0.738,0.102l8.39-16.644l3.89-7.551
		h-0.082l0.082-0.16h-11.851l-12.462,25.676c-1.367,2.66-2.523,5.316-3.476,7.902c-1.024,2.523-1.496,5.179-1.496,7.902
		c0,2.926,0.472,5.519,1.359,7.766c0.953,2.316,2.246,4.222,3.949,5.789c1.637,1.496,3.61,2.726,5.86,3.539
		c2.25,0.754,4.699,1.16,7.289,1.16c2.586,0,5.039-0.406,7.285-1.226c2.25-0.817,4.157-2.039,5.86-3.61
		c1.637-1.562,2.93-3.539,3.882-5.789c0.954-2.246,1.43-4.906,1.43-7.836c0-2.722-0.41-5.172-1.293-7.352
		C272.313,432.168,271.156,430.328,269.726,428.832z M256.035,450.426c-2.25,0-4.086-0.75-5.516-2.25
		c-1.434-1.496-2.183-3.61-2.183-6.402c0-2.723,0.75-4.906,2.183-6.402c1.43-1.5,3.266-2.246,5.516-2.246
		c2.313,0,4.152,0.817,5.586,2.383c1.36,1.496,2.043,3.609,2.043,6.266c0,2.793-0.683,4.906-2.114,6.402
		C260.05,449.676,258.215,450.426,256.035,450.426z" style="fill: rgb(255, 255, 255);"></path>
	<path class="st0" d="M92.293,252.355c0.954-2.59,1.43-5.175,1.43-7.902c0-2.93-0.476-5.586-1.43-7.832
		c-0.882-2.316-2.25-4.222-3.882-5.722c-1.633-1.566-3.61-2.793-5.86-3.539c-2.246-0.82-4.699-1.23-7.285-1.23
		c-2.59,0-5.039,0.41-7.289,1.23c-2.246,0.817-4.157,2.039-5.86,3.606c-1.633,1.637-2.926,3.543-3.878,5.859
		c-0.957,2.317-1.43,4.902-1.43,7.766c0,2.794,0.406,5.242,1.293,7.426c0.882,2.179,2.11,3.949,3.543,5.445
		c1.43,1.5,3.062,2.66,4.969,3.473c1.91,0.82,3.816,1.226,5.859,1.226c0.679,0,1.43-0.066,2.179-0.199
		c0.477-0.046,0.926-0.214,1.387-0.347c0.25-0.039,0.457-0.074,0.742-0.102l-8.414,16.683l-3.863,7.508h0.078l-0.078,0.16h11.781
		l12.535-25.606C90.18,257.527,91.34,254.875,92.293,252.355z M75.266,235.871c2.246,0,4.016,0.75,5.516,2.25
		c1.434,1.496,2.113,3.606,2.113,6.402c0,2.79-0.679,4.902-2.113,6.398c-1.5,1.5-3.27,2.25-5.516,2.25
		c-2.316,0-4.156-0.75-5.586-2.313c-1.363-1.57-2.043-3.679-2.043-6.336c0-2.797,0.68-4.906,2.11-6.402
		C71.246,236.621,73.016,235.871,75.266,235.871z" style="fill: rgb(255, 255, 255);"></path>
	<path class="st0" d="M343.625,402.95c-0.222-0.379-0.606-0.535-0.953-0.742c-0.008-0.004-0.012-0.012-0.02-0.016
		c-0.351-0.207-0.675-0.293-1.086-0.293c0,0-0.008-0.008-0.016-0.008c-0.015,0-0.031,0.016-0.05,0.016
		c-0.386,0.008-0.778-0.058-1.145,0.156c-1.156,0.684-1.496,2.114-0.882,3.27l14.71,25.477c0.477,0.75,1.294,1.156,2.114,1.156
		c0.406,0,0.817-0.066,1.156-0.27c1.161-0.683,1.566-2.113,0.887-3.27L343.625,402.95z" style="fill: rgb(255, 255, 255);"></path>
	<path class="st0" d="M168.442,109.047c0.41,0.75,1.226,1.226,2.042,1.226c0.41,0,0.821-0.137,1.227-0.344
		c1.09-0.679,1.5-2.11,0.886-3.27l-14.714-25.473c-0.219-0.37-0.602-0.507-0.946-0.706c-0.012-0.008-0.02-0.02-0.031-0.024
		c-0.73-0.406-1.562-0.566-2.293-0.152c-1.157,0.679-1.563,2.11-0.883,3.27L168.442,109.047z" style="fill: rgb(255, 255, 255);"></path>
	<path class="st0" d="M405.336,339.469c-0.367-0.218-0.762-0.149-1.149-0.156c-0.015,0-0.031-0.016-0.046-0.016
		c-0.008,0-0.012,0.004-0.02,0.004c-0.406,0.004-0.726,0.09-1.082,0.297c-0.008,0.004-0.016,0.012-0.023,0.016
		c-0.348,0.206-0.727,0.363-0.95,0.742c-0.614,1.09-0.274,2.586,0.886,3.203l25.473,14.707c0.41,0.274,0.817,0.344,1.226,0.344
		c0.817,0,1.633-0.41,2.043-1.157c0.68-1.16,0.274-2.656-0.886-3.27L405.336,339.469z" style="fill: rgb(255, 255, 255);"></path>
	<path class="st0" d="M83.574,153.656c-0.336-0.187-0.723-0.117-1.102-0.121c0,0-0.008-0.004-0.016-0.004h-0.004
		c-0.836,0-1.66,0.266-2.078,1.016c-0.684,1.156-0.274,2.586,0.816,3.27l25.543,14.71c0.34,0.203,0.746,0.34,1.156,0.34
		c0.817,0,1.637-0.41,2.043-1.226c0.68-1.086,0.274-2.586-0.817-3.199L83.574,153.656z" style="fill: rgb(255, 255, 255);"></path>
	<path class="st0" d="M404.18,172.867c0.41,0,0.816-0.137,1.156-0.34l25.473-14.71c1.16-0.684,1.566-2.114,0.886-3.27
		c-0.465-0.75-1.281-1.012-2.117-1.016h-0.004h-0.008c-0.386,0.004-0.778-0.066-1.141,0.125l-25.473,14.786
		c-1.16,0.613-1.5,2.113-0.886,3.199C402.543,172.457,403.359,172.867,404.18,172.867z" style="fill: rgb(255, 255, 255);"></path>
	<path class="st0" d="M109.054,339.652c-0.027-0.015-0.046-0.042-0.074-0.058c-0.352-0.203-0.661-0.289-1.063-0.289
		c-0.007,0-0.015-0.008-0.015-0.008c-0.023,0-0.039,0.016-0.058,0.016c-0.383,0.011-0.77-0.059-1.11,0.156l-25.543,14.714
		c-1.09,0.614-1.5,2.11-0.816,3.27c0.406,0.746,1.222,1.157,2.042,1.157c0.406,0,0.817-0.07,1.157-0.344l25.542-14.707
		c1.09-0.617,1.497-2.113,0.817-3.203C109.742,339.996,109.375,339.859,109.054,339.652z" style="fill: rgb(255, 255, 255);"></path>
	<path class="st0" d="M341.582,110.274c0.82,0,1.57-0.477,2.042-1.226l14.715-25.473c0.679-1.16,0.274-2.59-0.887-3.27
		c-0.773-0.414-1.59-0.254-2.304,0.148c-0.008,0.004-0.012,0.012-0.024,0.016c-0.34,0.199-0.722,0.344-0.942,0.718l-14.71,25.473
		c-0.614,1.16-0.274,2.59,0.882,3.27C340.766,110.137,341.176,110.274,341.582,110.274z" style="fill: rgb(255, 255, 255);"></path>
	<path class="st0" d="M170.566,401.906c-0.016,0-0.031-0.016-0.05-0.016l-0.012,0.008c-0.41,0.004-0.734,0.086-1.09,0.293
		c-0.008,0.004-0.012,0.008-0.012,0.008c-0.352,0.211-0.738,0.367-0.961,0.75l-14.711,25.476c-0.68,1.157-0.274,2.586,0.883,3.27
		c0.343,0.203,0.75,0.27,1.16,0.27c0.816,0,1.637-0.406,2.11-1.156l14.714-25.477c0.614-1.156,0.203-2.586-0.886-3.27
		C171.344,401.848,170.953,401.914,170.566,401.906z" style="fill: rgb(255, 255, 255);"></path>
	<path class="st0" d="M269.039,228.164c0.015,0.008,0.031,0.019,0.046,0.027l-0.109,0.122c6.402,2.722,11.781,7.695,14.984,13.89
		l53.058-57.282c3.817-4.152,3.543-10.625-0.613-14.438c-4.153-3.882-10.555-3.609-14.442,0.543l-39.554,42.762L269.039,228.164z" style="fill: rgb(255, 255, 255);"></path>
	<path class="st0" d="M291.09,284.098l-9.93-9.039l-0.011,0.016l-0.118-0.106c-0.477,0.68-1.09,1.359-1.703,2.043
		c-0.894,0.953-1.855,1.878-2.867,2.609c-0.031,0.016-0.058,0.051-0.09,0.066l0.012,0.008c-0.043,0.031-0.074,0.078-0.118,0.11
		l91.473,83.027c0.613,0.614,1.43,0.886,2.25,0.886c0.954,0,1.836-0.41,2.516-1.094c1.297-1.43,1.16-3.606-0.203-4.832
		L291.09,284.098z" style="fill: rgb(255, 255, 255);"></path>
	<path class="st0" d="M226.859,259.152c-0.035-0.546-0.203-1.05-0.203-1.605l-0.042,0.011c0-0.011-0.004-0.019-0.004-0.031
		c0-0.066,0-0.066,0-0.133l-92.836,28.402c-3.61,1.094-5.586,4.902-4.496,8.516c0.886,2.926,3.609,4.766,6.539,4.766
		c0.613,0,1.297-0.066,1.976-0.27l76.726-23.43l15.493-4.696c-0.008-0.007-0.008-0.019-0.012-0.027l0.152-0.046
		C228.289,267.183,227.25,263.285,226.859,259.152z" style="fill: rgb(255, 255, 255);"></path>
	<path class="st0" d="M256.988,276.602c0.274,0,0.547-0.07,0.817-0.07c4.086-0.133,7.766-1.496,10.832-3.676
		c1.906-1.293,3.473-2.93,4.836-4.766c2.519-3.476,3.949-7.832,3.742-12.535c-0.066-1.77-0.336-3.472-0.883-5.105
		c-2.114-7.02-7.902-12.329-15.05-13.829c-1.364-0.339-2.798-0.476-4.294-0.476h-0.75c-10.219,0.41-18.321,8.242-19.344,18.117
		c-0.066,0.954-0.137,1.906-0.066,2.863c0.137,3.879,1.359,7.422,3.336,10.418C243.774,272.992,249.973,276.602,256.988,276.602z" style="fill: rgb(255, 255, 255);"></path>
</g>
</svg>
